<svg width="20" height="23" viewBox="0 0 20 23" fill="none" xmlns="http://www.w3.org/2000/svg">
<path fill-rule="evenodd" clip-rule="evenodd" d="M7.64684 5.17217C7.36331 5.17217 7.13378 4.93339 7.13378 4.65484C7.13378 4.37629 7.36331 4.13753 7.64684 4.13753C7.94385 4.13753 8.17338 4.37629 8.17338 4.65484C8.17338 4.93339 7.94385 5.17217 7.64684 5.17217ZM13.3442 5.17217C13.0472 5.17217 12.8176 4.93339 12.8176 4.65484C12.8176 4.37629 13.0472 4.13753 13.3442 4.13753C13.6276 4.13753 13.8572 4.37629 13.8572 4.65484C13.8572 4.93339 13.6276 5.17217 13.3442 5.17217ZM2.38154 7.61293C1.61197 7.61293 0.990967 8.22316 0.990967 8.9659V14.6698C0.990967 15.426 1.61197 16.0362 2.38154 16.0362C3.15103 16.0362 3.75859 15.426 3.75859 14.6698V8.9659C3.75859 8.22316 3.13758 7.61293 2.38154 7.61293ZM16.6923 7.86492H4.29863V16.6995C4.29863 17.5086 4.9602 18.1586 5.78372 18.1586H6.78276L6.79627 21.1698C6.79627 21.9259 7.41734 22.5362 8.17338 22.5362C8.94289 22.5362 9.56393 21.9259 9.56393 21.1698V18.1586H11.4271V21.1698C11.4271 21.9259 12.0481 22.5362 12.8176 22.5362C13.5871 22.5362 14.2082 21.9259 14.2082 21.1698V18.1586H15.2207C16.0308 18.1586 16.6923 17.5086 16.6923 16.6995V7.86492ZM13.5602 2.49263L14.5187 0.754861C14.5727 0.662112 14.5457 0.542656 14.4512 0.489668C14.3567 0.449732 14.2352 0.476314 14.1812 0.569213L13.2091 2.32019C12.3856 1.96195 11.4676 1.7631 10.4955 1.7631C9.52343 1.7631 8.60536 1.96195 7.78183 2.32019L6.80979 0.569213C6.75577 0.476314 6.63425 0.449732 6.53976 0.489668C6.44523 0.542656 6.41824 0.662112 6.47228 0.754861L7.43079 2.49263C5.52723 3.44775 4.24466 5.27828 4.24466 7.38734H16.7328C16.7328 5.27828 15.4503 3.44775 13.5602 2.49263ZM20 8.9659C20 8.20981 19.379 7.61293 18.6095 7.61293C17.8534 7.61293 17.2324 8.20981 17.2324 8.9659V14.6698C17.2324 15.426 17.8534 16.0362 18.6095 16.0362C19.379 16.0362 20 15.426 20 14.6698V8.9659Z" fill="white"/>
</svg>
